<svg id="Group_1_copy_6" data-name="Group 1 copy 6" xmlns="http://www.w3.org/2000/svg" width="147" height="45" viewBox="0 0 147 45">
  <defs>
    <style>
      .cls-1 {
        fill: #fff;
      }

      .cls-1, .cls-2, .cls-3, .cls-4 {
        fill-rule: evenodd;
      }

      .cls-2 {
        fill: #e3d4d4;
      }

      .cls-3 {
        fill: #fdad2b;
      }

      .cls-4 {
        fill: #722626;
      }
    </style>
  </defs>
  <path id="iBoxify_copy" data-name="iBoxify copy" class="cls-1" d="M48.254,22.459V12.943a1.926,1.926,0,0,0-2.234-2.12q-2.288,0-2.288,2.12v9.516q0,2.093,2.288,2.093,2.234,0,2.234-2.093h0Zm11.924,2.1a6.173,6.173,0,0,0,4.212-1.274,4.5,4.5,0,0,0,1.44-3.555,4.069,4.069,0,0,0-2.126-3.81,0.805,0.805,0,0,1-.444-0.456,0.74,0.74,0,0,1,.417-0.483,3.636,3.636,0,0,0,1.561-3.166,4.2,4.2,0,0,0-1.575-3.381A6.069,6.069,0,0,0,59.64,7.119H54.5a3.384,3.384,0,0,0-2.153.523,1.939,1.939,0,0,0-.619,1.57V22.466a1.939,1.939,0,0,0,.619,1.57,3.384,3.384,0,0,0,2.153.523h5.679Zm-3.122-10.3a0.882,0.882,0,0,1-.942-1.046v-1.8a0.807,0.807,0,0,1,1-.8h1.534a3.1,3.1,0,0,1,1.9.456,1.637,1.637,0,0,1,.579,1.368q0,1.825-2.369,1.824h-1.7ZM57.11,21.07a0.856,0.856,0,0,1-1-.939v-1.8a0.882,0.882,0,0,1,.942-1.046h1.776q2.718,0,2.719,1.878,0,1.905-2.719,1.9H57.11ZM85.48,15.839a8.814,8.814,0,0,0-2.5-6.506,8.96,8.96,0,0,0-12.436,0,8.813,8.813,0,0,0-2.5,6.506,8.823,8.823,0,0,0,2.5,6.493,8.926,8.926,0,0,0,12.436,0,8.823,8.823,0,0,0,2.5-6.493h0Zm-12.893,0a5.2,5.2,0,0,1,1.171-3.528,3.712,3.712,0,0,1,3-1.328,3.789,3.789,0,0,1,3,1.355,5.164,5.164,0,0,1,1.171,3.5,5.163,5.163,0,0,1-1.171,3.5,4,4,0,0,1-6,0,5.162,5.162,0,0,1-1.171-3.5h0ZM98.912,7.266a4.227,4.227,0,0,0-1.05,1.087l-2.611,3.515a0.859,0.859,0,0,1-.565.456,0.929,0.929,0,0,1-.592-0.456L91.51,8.353a2.943,2.943,0,0,0-2.342-1.422,2.174,2.174,0,0,0-1.467.5,1.631,1.631,0,0,0-.579,1.3,3.72,3.72,0,0,0,1,2.039l3.445,4.293a0.9,0.9,0,0,1,0,1.288L87.9,20.909a3.511,3.511,0,0,0-1,2.012,1.689,1.689,0,0,0,.565,1.315,2.089,2.089,0,0,0,1.454.51,2.433,2.433,0,0,0,1.332-.335,4.1,4.1,0,0,0,1.063-1.087l2.772-3.837a0.93,0.93,0,0,1,.592-0.456,0.86,0.86,0,0,1,.565.456l2.8,3.837a4.212,4.212,0,0,0,1.05,1.087,2.364,2.364,0,0,0,1.319.335,2.14,2.14,0,0,0,1.467-.51,1.67,1.67,0,0,0,.579-1.315,3.574,3.574,0,0,0-1.023-2.012l-3.661-4.561a0.977,0.977,0,0,1,0-1.288l3.446-4.293a3.79,3.79,0,0,0,1.023-2.039,1.632,1.632,0,0,0-.579-1.3,2.215,2.215,0,0,0-1.494-.5A2.259,2.259,0,0,0,98.912,7.266Zm10.794,15.387V9.024q0-2.093-2.235-2.093-2.261,0-2.261,2.093v13.63q0,2.093,2.261,2.093,2.235,0,2.235-2.093h0Zm8.128,0.107v-3.6a1.2,1.2,0,0,1,.216-0.8,0.893,0.893,0,0,1,.7-0.242H123.3a1.6,1.6,0,0,0,1.831-1.8A1.615,1.615,0,0,0,123.3,14.5h-4.387a1.117,1.117,0,0,1-.834-0.255,1.347,1.347,0,0,1-.243-0.926V12.351a1.163,1.163,0,0,1,.269-0.885,1.37,1.37,0,0,1,.916-0.241H124.7a1.737,1.737,0,0,0,1.884-2.039,2.1,2.1,0,0,0-.511-1.583,2.249,2.249,0,0,0-1.588-.483h-8.8q-2.341,0-2.342,2.093V22.653q0,2.093,2.261,2.093,2.234,0,2.234-1.985h0Zm21.13-.107V19.139a2.373,2.373,0,0,1,.242-1.234q0.674-.992,2.221-3.313t2.651-3.931a4.068,4.068,0,0,0,.889-1.932,1.616,1.616,0,0,0-.593-1.3,2.226,2.226,0,0,0-1.48-.5,2.132,2.132,0,0,0-1.211.309,3.508,3.508,0,0,0-.942,1.113l-3.392,5.259q-0.673,1.046-1.319,0l-3.365-5.259a3.4,3.4,0,0,0-.928-1.1,2.131,2.131,0,0,0-1.225-.322,2.16,2.16,0,0,0-1.48.5,1.649,1.649,0,0,0-.566,1.3,3.619,3.619,0,0,0,.862,1.932q1.345,2.012,2.839,4.266t2.006,3.005a2.255,2.255,0,0,1,.269,1.234v3.488q0,2.093,2.288,2.093,2.234,0,2.234-2.093h0Z"/>
  <path id="packaging_copy_2" data-name="packaging copy 2" class="cls-1" d="M46.264,36.062a3.633,3.633,0,0,0,5.384-.068,4.446,4.446,0,0,0,1.112-3.09,4.516,4.516,0,0,0-1.121-3.141,3.582,3.582,0,0,0-2.811-1.253,3.541,3.541,0,0,0-2.565,1.126v-0.9H44.353V41.471h1.911V36.062Zm3.881-1.287a2.074,2.074,0,0,1-1.639.745,2.149,2.149,0,0,1-1.7-.736,2.813,2.813,0,0,1-.654-1.913,2.754,2.754,0,0,1,.654-1.913,2.186,2.186,0,0,1,1.707-.728,2.089,2.089,0,0,1,1.648.753,2.842,2.842,0,0,1,.645,1.93,2.7,2.7,0,0,1-.662,1.862h0ZM62.62,29.7a3.523,3.523,0,0,0-2.59-1.185,3.591,3.591,0,0,0-2.786,1.236,4.446,4.446,0,0,0-1.113,3.09,4.586,4.586,0,0,0,1.113,3.149,3.678,3.678,0,0,0,5.376.136v0.864h1.919V28.739H62.62V29.7Zm-3.881,1.278a2.116,2.116,0,0,1,1.648-.745,2.166,2.166,0,0,1,1.7.736,3.126,3.126,0,0,1,0,3.826,2.2,2.2,0,0,1-1.716.728,2.089,2.089,0,0,1-1.648-.754,2.866,2.866,0,0,1-.637-1.93,2.741,2.741,0,0,1,.654-1.862h0Zm14.079-2.463a4.433,4.433,0,0,0-3.21,1.27A4.173,4.173,0,0,0,68.3,32.9a4.117,4.117,0,0,0,1.291,3.09,4.46,4.46,0,0,0,3.21,1.236,5.031,5.031,0,0,0,2.327-.6V34.106a4.807,4.807,0,0,1-1.2,1.117,2.434,2.434,0,0,1-1.215.3,2.323,2.323,0,0,1-1.775-.745,2.7,2.7,0,0,1-.688-1.9,2.638,2.638,0,0,1,.713-1.888,2.364,2.364,0,0,1,1.792-.753,2.288,2.288,0,0,1,1.2.3,4.655,4.655,0,0,1,1.172,1.092V29.095a4.809,4.809,0,0,0-2.31-.584h0Zm6.351,0.032v8.441h1.911V33.81l0.306-.3,2.735,3.479H86.6L82.744,32.2l3.593-3.462H83.772l-2.692,2.666V28.543H79.169Zm16.2,1.153a3.522,3.522,0,0,0-2.59-1.185A3.592,3.592,0,0,0,90,29.747a4.446,4.446,0,0,0-1.113,3.09A4.587,4.587,0,0,0,90,35.985a3.678,3.678,0,0,0,5.376.136v0.864H97.29V28.739H95.371V29.7ZM91.49,30.974a2.115,2.115,0,0,1,1.648-.745,2.166,2.166,0,0,1,1.7.736,3.126,3.126,0,0,1,0,3.826,2.2,2.2,0,0,1-1.715.728,2.089,2.089,0,0,1-1.648-.754,2.865,2.865,0,0,1-.637-1.93,2.74,2.74,0,0,1,.654-1.862h0Zm17.952-2.235h-1.911V29.67a3.339,3.339,0,0,0-2.6-1.16,3.515,3.515,0,0,0-2.87,1.337,4.746,4.746,0,0,0-1.011,3.064A4.507,4.507,0,0,0,102.138,36a3.53,3.53,0,0,0,2.769,1.219,3.574,3.574,0,0,0,2.624-1.16v1.151q0,2.565-2.1,2.565a2.054,2.054,0,0,1-1.732-.77,2.165,2.165,0,0,1-.366-0.94h-1.919A3.629,3.629,0,0,0,102.69,40.6a4.122,4.122,0,0,0,2.726.889A3.875,3.875,0,0,0,108.5,40.2a3.487,3.487,0,0,0,.8-1.6,7.067,7.067,0,0,0,.107-0.783q0.038-.444.038-1.029v-8.05Zm-2.421,5.985a2.1,2.1,0,0,1-1.732.8,2.062,2.062,0,0,1-1.716-.787,3.3,3.3,0,0,1,0-3.708,2.06,2.06,0,0,1,1.716-.8,2.138,2.138,0,0,1,1.673.736,2.771,2.771,0,0,1,.645,1.922,2.826,2.826,0,0,1-.586,1.845h0Zm6.572-4.338v6.6H115.5v-6.6h-1.911Zm0.076-1.441a1.207,1.207,0,0,0,.884.364,1.175,1.175,0,0,0,.874-0.364,1.2,1.2,0,0,0,.366-0.88,1.169,1.169,0,0,0-.366-0.872,1.243,1.243,0,0,0-1.758,0,1.18,1.18,0,0,0-.365.864A1.208,1.208,0,0,0,113.669,28.945Zm6,8.04h1.919V33.006a4.292,4.292,0,0,1,.391-2.159,1.476,1.476,0,0,1,1.35-.626,1.373,1.373,0,0,1,1.206.474,3.015,3.015,0,0,1,.34,1.684v4.605h1.919V31.931a3.7,3.7,0,0,0-.7-2.514,2.858,2.858,0,0,0-2.251-.906,3.137,3.137,0,0,0-2.259.99V28.739h-1.919v8.245Zm19.276-8.245h-1.91V29.67a3.34,3.34,0,0,0-2.6-1.16,3.518,3.518,0,0,0-2.871,1.337,4.745,4.745,0,0,0-1.01,3.064A4.507,4.507,0,0,0,131.637,36a3.529,3.529,0,0,0,2.768,1.219,3.575,3.575,0,0,0,2.625-1.16v1.151q0,2.565-2.1,2.565a2.057,2.057,0,0,1-1.733-.77,2.165,2.165,0,0,1-.365-0.94h-1.919a3.629,3.629,0,0,0,1.274,2.531,4.122,4.122,0,0,0,2.726.889A3.877,3.877,0,0,0,138,40.2a3.487,3.487,0,0,0,.8-1.6,7.085,7.085,0,0,0,.106-0.783c0.026-.3.038-0.639,0.038-1.029v-8.05Zm-2.42,5.985a2.1,2.1,0,0,1-1.733.8,2.061,2.061,0,0,1-1.715-.787,3.3,3.3,0,0,1,0-3.708,2.06,2.06,0,0,1,1.715-.8,2.138,2.138,0,0,1,1.674.736,2.771,2.771,0,0,1,.645,1.922,2.826,2.826,0,0,1-.586,1.845h0Z"/>
  <g id="box_copy_6" data-name="box copy 6">
    <path id="Layer" class="cls-1" d="M18.2,3.01a6.477,6.477,0,0,0-2.1.876c-1.267.723-2.428,1.39-5.52,3.168C10,7.384,9.188,7.858,8.764,8.1s-1.145.662-1.61,0.927c-1.436.825-1.8,1.034-2.325,1.334-0.751.428-.945,0.708-0.772,1.115,0.092,0.219.194,0.3,1.411,1,1.436,0.835,10.217,5.989,11.745,6.89,0.736,0.438,1.451.856,1.59,0.932l0.255,0.132,1.063-.621c0.583-.346,1.216-0.718,1.411-0.825s0.583-.341.874-0.524,1.268-.754,2.162-1.278c2.116-1.243,2.438-1.431,2.775-1.625,0.153-.087.741-0.433,1.3-0.764s1.15-.677,1.3-0.764c0.332-.188.567-0.331,2.07-1.212,0.618-.367,1.262-0.738,1.431-0.835a0.925,0.925,0,0,0,.639-0.749c0-.433-0.041-0.474-1.022-1.039-0.3-.168-1.191-0.682-1.993-1.146s-2.5-1.436-3.782-2.174S24.6,5.327,24.147,5.067c-3.041-1.752-3.322-1.894-4.1-2.042A7.7,7.7,0,0,0,18.2,3.01Z"/>
    <path id="Layer_copy_3" data-name="Layer copy 3" class="cls-2" d="M19.057,20.431l1.063-.621c0.583-.346,1.216-0.718,1.411-0.825s0.583-.341.874-0.524,1.268-.754,2.162-1.278c2.116-1.243,2.438-1.431,2.775-1.625,0.153-.087.741-0.433,1.3-0.764s1.15-.677,1.3-0.764c0.332-.188.567-0.331,2.07-1.212,0.618-.367,1.262-0.738,1.431-0.835a0.925,0.925,0,0,0,.639-0.749c0-.433-0.041-0.474-1.022-1.039-0.3-.168-1.191-0.682-1.993-1.146s-2.5-1.436-3.782-2.174S24.6,5.327,24.147,5.067c-3.041-1.752-3.322-1.894-4.1-2.042-0.224-.041-1.005-0.063-1.005-0.063Z"/>
    <path id="Layer-2" data-name="Layer" class="cls-3" d="M2.4,14.045a0.9,0.9,0,0,0-.4.366l-0.107.178v14.9l0.123,0.534A4.951,4.951,0,0,0,3.167,32.3a5.38,5.38,0,0,0,1.227,1c0.2,0.112,4.283,2.456,5.622,3.229,0.266,0.158.649,0.371,0.843,0.483s0.634,0.361.971,0.559c1.324,0.768,1.59.92,3.194,1.841a11.157,11.157,0,0,0,1.871.981,0.761,0.761,0,0,0,.715-0.346l0.123-.183-0.01-8.492c-0.015-8.385-.015-8.487-0.117-8.655a1.324,1.324,0,0,0-.409-0.351c-0.388-.234-2.785-1.632-3.322-1.948-0.225-.132-0.613-0.361-0.869-0.509s-0.736-.427-1.073-0.625-0.8-.463-1.022-0.6-1.533-.9-2.913-1.7c-3.67-2.141-3.675-2.146-4.37-2.558a2.071,2.071,0,0,0-.894-0.4A0.975,0.975,0,0,0,2.4,14.045Z"/>
    <path id="Layer-3" data-name="Layer" class="cls-3" d="M35.11,14.04c-0.189.1-4.038,2.348-6.184,3.613-0.69.4-1.518,0.889-1.84,1.077-2.044,1.189-5.658,3.3-5.98,3.5a1.272,1.272,0,0,0-.71.656c-0.031.1-.036,3.537-0.021,8.518,0.031,9.234,0,8.543.363,8.818a0.61,0.61,0,0,0,.44.137c0.286,0,.1.1,2.714-1.408,0.705-.407,1.5-0.859,1.763-1.017,1.165-.671,2.29-1.316,3.169-1.819,0.521-.3,1.3-0.747,1.738-1S31.8,34.4,32.35,34.084a15.211,15.211,0,0,0,2.1-1.291A5.15,5.15,0,0,0,36.234,29.5c0.041-.351.051-2.485,0.041-7.725-0.015-7.135-.015-7.242-0.117-7.415a0.749,0.749,0,0,0-.624-0.4A0.717,0.717,0,0,0,35.11,14.04Z"/>
    <path id="Layer_copy_4" data-name="Layer copy 4" class="cls-4" d="M19.059,15.64l-4.134,2.32a1.365,1.365,0,0,0,.387.275c0.394,0.229,2.8,1.641,3.221,1.888,0.2,0.12.4,0.235,0.436,0.255l0.07,0.036,0.291-.17c0.16-.095.334-0.2,0.387-0.226s0.16-.094.24-0.144,0.348-.207.593-0.35c0.58-.341.669-0.392,0.761-0.445l0.357-.209,0.357-.209c0.091-.052.156-0.091,0.568-0.332,0.17-.1.346-0.2,0.392-0.229a0.434,0.434,0,0,0,.175-0.205Z"/>
  </g>
  <g>
    <path class="cls-1" d="M46.7,0.735l3.464,3.508a0.967,0.967,0,0,1-.011,1.371L46.63,9.067a0.975,0.975,0,0,1-1.376-.011L41.791,5.548A0.967,0.967,0,0,1,41.8,4.176l3.52-3.453A0.975,0.975,0,0,1,46.7.735Z"/>
    <path id="Rectangle_1_copy_2" data-name="Rectangle 1 copy 2" class="cls-1" d="M46.842,0.881L50.114,4.1A1.172,1.172,0,0,1,50.1,5.758L46.777,8.923a2.075,2.075,0,0,1-.8.337l0-8.827A1.462,1.462,0,0,1,46.842.881Z"/>
    <path id="Rectangle_1_copy" data-name="Rectangle 1 copy" class="cls-1" d="M48.235,7.521l-1.458,1.4A1.182,1.182,0,0,1,45.11,8.91L43.7,7.457l2.275-1.639Z"/>
  </g>
</svg>
