<svg id="Group_1_copy_4" data-name="Group 1 copy 4" xmlns="http://www.w3.org/2000/svg" width="144" height="50" viewBox="0 0 144 50">
  <defs>
    <style>
      .cls-1 {
        fill: #1e0900;
      }

      .cls-1, .cls-2, .cls-3, .cls-4, .cls-5, .cls-6 {
        fill-rule: evenodd;
      }

      .cls-2 {
        fill: #1d1d1d;
      }

      .cls-3 {
        fill: #b03a0a;
      }

      .cls-4 {
        fill: #e34e11;
      }

      .cls-5 {
        fill: #ffae05;
      }

      .cls-6 {
        fill: #822904;
      }
    </style>
  </defs>
  <path id="iBoxify_copy" data-name="iBoxify copy" class="cls-1" d="M49.4,26.1V17.507a1.733,1.733,0,0,0-2-1.914,1.756,1.756,0,0,0-2.052,1.914V26.1q0,1.89,2.052,1.89a1.723,1.723,0,0,0,2-1.89h0ZM60.1,28a5.513,5.513,0,0,0,3.779-1.151,4.077,4.077,0,0,0,1.292-3.21,3.679,3.679,0,0,0-1.908-3.44,0.725,0.725,0,0,1-.4-0.412,0.667,0.667,0,0,1,.374-0.436,3.291,3.291,0,0,0,1.4-2.859,3.807,3.807,0,0,0-1.413-3.053,5.421,5.421,0,0,0-3.61-1.187H55.006a3.02,3.02,0,0,0-1.932.473,1.757,1.757,0,0,0-.555,1.417V26.106a1.757,1.757,0,0,0,.555,1.417A3.02,3.02,0,0,0,55.006,28h5.1Zm-2.8-9.3a0.794,0.794,0,0,1-.845-0.945V16.124a0.725,0.725,0,0,1,.894-0.727h1.376a2.764,2.764,0,0,1,1.7.412,1.483,1.483,0,0,1,.519,1.236q0,1.648-2.125,1.648H57.3Zm0.048,6.154A0.77,0.77,0,0,1,56.455,24V22.375A0.794,0.794,0,0,1,57.3,21.43h1.594q2.439,0,2.439,1.7,0,1.72-2.439,1.72H57.349ZM82.8,20.122a7.987,7.987,0,0,0-2.246-5.875,8,8,0,0,0-11.156,0,7.987,7.987,0,0,0-2.246,5.875A8,8,0,0,0,69.4,25.985a7.97,7.97,0,0,0,11.156,0A8,8,0,0,0,82.8,20.122h0Zm-11.567,0a4.719,4.719,0,0,1,1.05-3.186,3.32,3.32,0,0,1,2.692-1.2,3.389,3.389,0,0,1,2.692,1.224,4.683,4.683,0,0,1,1.05,3.162,4.682,4.682,0,0,1-1.05,3.162,3.574,3.574,0,0,1-5.385,0,4.682,4.682,0,0,1-1.05-3.162h0Zm23.616-7.741a3.8,3.8,0,0,0-.942.981l-2.342,3.174a0.771,0.771,0,0,1-.507.412,0.834,0.834,0,0,1-.531-0.412l-2.318-3.174a2.637,2.637,0,0,0-2.1-1.284,1.942,1.942,0,0,0-1.316.448,1.477,1.477,0,0,0-.519,1.175,3.37,3.37,0,0,0,.893,1.841l3.091,3.877a0.821,0.821,0,0,1,0,1.163L84.973,24.7a3.179,3.179,0,0,0-.893,1.817,1.53,1.53,0,0,0,.507,1.187,1.867,1.867,0,0,0,1.3.46,2.172,2.172,0,0,0,1.2-.3,3.692,3.692,0,0,0,.954-0.981l2.487-3.465A0.835,0.835,0,0,1,91.058,23a0.772,0.772,0,0,1,.507.412l2.511,3.465a3.794,3.794,0,0,0,.942.981,2.11,2.11,0,0,0,1.183.3,1.912,1.912,0,0,0,1.316-.46,1.514,1.514,0,0,0,.519-1.187,3.237,3.237,0,0,0-.918-1.817l-3.284-4.119a0.886,0.886,0,0,1,0-1.163l3.091-3.877a3.433,3.433,0,0,0,.918-1.841,1.478,1.478,0,0,0-.519-1.175,1.979,1.979,0,0,0-1.34-.448A2.016,2.016,0,0,0,94.849,12.381Zm9.683,13.895V13.968a2.021,2.021,0,0,0-4.033,0V26.276a2.021,2.021,0,0,0,4.033,0h0Zm7.292,0.1V23.126a1.09,1.09,0,0,1,.193-0.727,0.8,0.8,0,0,1,.628-0.218h4.081a1.443,1.443,0,0,0,1.642-1.623,1.454,1.454,0,0,0-1.642-1.648H112.79a1,1,0,0,1-.748-0.23,1.224,1.224,0,0,1-.218-0.836V16.972a1.053,1.053,0,0,1,.242-0.8,1.218,1.218,0,0,1,.821-0.218h5.095a1.564,1.564,0,0,0,1.69-1.841,1.9,1.9,0,0,0-.459-1.429,2.008,2.008,0,0,0-1.424-.436h-7.9q-2.1,0-2.1,1.89V26.276a1.734,1.734,0,0,0,2.028,1.89q2,0,2-1.793h0Zm18.955-.1V23.1A2.147,2.147,0,0,1,131,21.987q0.6-.9,1.992-2.992t2.378-3.55a3.674,3.674,0,0,0,.8-1.744,1.464,1.464,0,0,0-.531-1.175,1.989,1.989,0,0,0-1.328-.448,1.906,1.906,0,0,0-1.087.279,3.171,3.171,0,0,0-.845,1.005l-3.042,4.749q-0.6.945-1.184,0l-3.018-4.749a3.075,3.075,0,0,0-.833-0.993,1.9,1.9,0,0,0-1.1-.291,1.932,1.932,0,0,0-1.328.448,1.494,1.494,0,0,0-.507,1.175,3.277,3.277,0,0,0,.773,1.744q1.207,1.817,2.547,3.852t1.8,2.714a2.043,2.043,0,0,1,.242,1.115v3.15q0,1.89,2.052,1.89a1.723,1.723,0,0,0,2-1.89h0Z"/>
  <path id="packaging_copy_2" data-name="packaging copy 2" class="cls-2" d="M47.619,38.384a3.245,3.245,0,0,0,4.83-.061,4.031,4.031,0,0,0,1-2.79A4.094,4.094,0,0,0,52.442,32.7a3.2,3.2,0,0,0-2.522-1.131,3.167,3.167,0,0,0-2.3,1.017v-0.81H45.905v11.5h1.714V38.384ZM51.1,37.222a1.855,1.855,0,0,1-1.47.673,1.922,1.922,0,0,1-1.524-.665A2.55,2.55,0,0,1,47.52,35.5a2.5,2.5,0,0,1,.587-1.728,1.956,1.956,0,0,1,1.531-.657,1.869,1.869,0,0,1,1.478.68A2.577,2.577,0,0,1,51.7,35.54a2.447,2.447,0,0,1-.594,1.682h0Zm11.19-4.587a3.151,3.151,0,0,0-2.324-1.07,3.212,3.212,0,0,0-2.5,1.116,4.03,4.03,0,0,0-1,2.79,4.158,4.158,0,0,0,1,2.844,3.285,3.285,0,0,0,4.823.122v0.78h1.722V31.771H62.291v0.864ZM58.81,33.789a1.892,1.892,0,0,1,1.478-.673,1.937,1.937,0,0,1,1.524.665,2.837,2.837,0,0,1,0,3.455,1.964,1.964,0,0,1-1.539.657,1.869,1.869,0,0,1-1.478-.68,2.6,2.6,0,0,1-.571-1.743,2.485,2.485,0,0,1,.587-1.682h0Zm12.63-2.224a3.962,3.962,0,0,0-2.88,1.147,3.781,3.781,0,0,0-1.173,2.813,3.73,3.73,0,0,0,1.158,2.79,3.986,3.986,0,0,0,2.88,1.116,4.491,4.491,0,0,0,2.088-.543v-2.27a4.322,4.322,0,0,1-1.074,1.009,2.172,2.172,0,0,1-1.09.267,2.077,2.077,0,0,1-1.592-.673,2.445,2.445,0,0,1-.617-1.72,2.391,2.391,0,0,1,.64-1.7,2.114,2.114,0,0,1,1.608-.68,2.043,2.043,0,0,1,1.074.275,4.187,4.187,0,0,1,1.051.986V32.092a4.292,4.292,0,0,0-2.072-.527h0Zm5.7,0.029v7.623h1.714V36.35l0.274-.275,2.453,3.142H83.8L80.345,34.9l3.223-3.126h-2.3l-2.415,2.408V31.594H77.137Zm14.535,1.041a3.151,3.151,0,0,0-2.324-1.07,3.212,3.212,0,0,0-2.5,1.116,4.031,4.031,0,0,0-1,2.79,4.159,4.159,0,0,0,1,2.844,3.285,3.285,0,0,0,4.823.122v0.78h1.722V31.771H91.673v0.864Zm-3.482,1.154a1.893,1.893,0,0,1,1.478-.673,1.937,1.937,0,0,1,1.524.665,2.837,2.837,0,0,1,0,3.455,1.964,1.964,0,0,1-1.539.657,1.869,1.869,0,0,1-1.478-.68,2.6,2.6,0,0,1-.571-1.743,2.485,2.485,0,0,1,.587-1.682h0Zm16.1-2.018h-1.714v0.841a2.987,2.987,0,0,0-2.331-1.047,3.147,3.147,0,0,0-2.575,1.208,4.3,4.3,0,0,0-.907,2.767,4.087,4.087,0,0,0,.975,2.79,3.157,3.157,0,0,0,2.484,1.1,3.2,3.2,0,0,0,2.354-1.047v1.04q0,2.316-1.882,2.316a1.839,1.839,0,0,1-1.554-.7,1.958,1.958,0,0,1-.328-0.848H97.1a3.285,3.285,0,0,0,1.143,2.286,3.683,3.683,0,0,0,2.446.8,3.468,3.468,0,0,0,2.766-1.162,3.159,3.159,0,0,0,.716-1.445,6.678,6.678,0,0,0,.095-0.707q0.035-.4.034-0.929v-7.27Zm-2.171,5.4a1.879,1.879,0,0,1-1.554.719,1.845,1.845,0,0,1-1.539-.711,3,3,0,0,1,0-3.348,1.843,1.843,0,0,1,1.539-.726,1.914,1.914,0,0,1,1.5.665,2.512,2.512,0,0,1,.579,1.735,2.568,2.568,0,0,1-.526,1.666h0Zm5.9-3.917v5.958h1.715V33.259h-1.715Zm0.069-1.3a1.076,1.076,0,0,0,.792.329,1.052,1.052,0,0,0,.785-0.329,1.087,1.087,0,0,0,.328-0.8,1.062,1.062,0,0,0-.328-0.787,1.11,1.11,0,0,0-1.577,0,1.065,1.065,0,0,0-.328.78A1.092,1.092,0,0,0,108.088,31.957Zm5.377,7.26h1.722V35.624a3.9,3.9,0,0,1,.351-1.949,1.32,1.32,0,0,1,1.211-.566,1.228,1.228,0,0,1,1.082.428,2.736,2.736,0,0,1,.3,1.521v4.158h1.721V34.653a3.36,3.36,0,0,0-.624-2.27,2.557,2.557,0,0,0-2.019-.818,2.805,2.805,0,0,0-2.027.894V31.771h-1.722v7.446Zm17.293-7.446h-1.714v0.841a2.987,2.987,0,0,0-2.331-1.047,3.146,3.146,0,0,0-2.575,1.208,4.3,4.3,0,0,0-.907,2.767,4.088,4.088,0,0,0,.975,2.79,3.157,3.157,0,0,0,2.484,1.1,3.2,3.2,0,0,0,2.354-1.047v1.04q0,2.316-1.882,2.316a1.84,1.84,0,0,1-1.554-.7,1.965,1.965,0,0,1-.328-0.848h-1.721a3.283,3.283,0,0,0,1.142,2.286,3.685,3.685,0,0,0,2.446.8,3.468,3.468,0,0,0,2.766-1.162,3.159,3.159,0,0,0,.716-1.445,6.678,6.678,0,0,0,.095-0.707q0.035-.4.034-0.929v-7.27Zm-2.171,5.4a1.879,1.879,0,0,1-1.554.719,1.845,1.845,0,0,1-1.539-.711,3,3,0,0,1,0-3.348,1.844,1.844,0,0,1,1.539-.726,1.914,1.914,0,0,1,1.5.665,2.512,2.512,0,0,1,.579,1.735,2.568,2.568,0,0,1-.526,1.666h0Z"/>
  <g id="box_copy_6" data-name="box copy 6">
    <path id="Layer" class="cls-3" d="M22.442,8.537a5.788,5.788,0,0,0-1.884.791c-1.137.653-2.178,1.255-4.952,2.86-0.518.3-1.247,0.727-1.628,0.943s-1.027.6-1.444,0.837c-1.288.745-1.614,0.934-2.086,1.2-0.674.386-.848,0.639-0.692,1.007,0.083,0.2.174,0.267,1.265,0.906,1.288,0.754,9.165,5.408,10.536,6.222,0.66,0.4,1.3.773,1.426,0.842l0.229,0.119,0.954-.561c0.523-.313,1.091-0.648,1.265-0.745s0.523-.308.784-0.474,1.137-.681,1.939-1.154c1.9-1.122,2.187-1.292,2.49-1.467,0.138-.078.665-0.391,1.169-0.69s1.032-.612,1.169-0.69c0.3-.17.509-0.3,1.857-1.094,0.555-.331,1.133-0.667,1.284-0.754a0.834,0.834,0,0,0,.573-0.676c0-.391-0.037-0.428-0.917-0.938-0.266-.152-1.068-0.616-1.788-1.035s-2.247-1.3-3.393-1.964-2.416-1.4-2.82-1.633C25.05,8.813,24.8,8.684,24.1,8.551A6.865,6.865,0,0,0,22.442,8.537Z"/>
    <path id="Layer_copy_3" data-name="Layer copy 3" class="cls-4" d="M23.212,24.269l0.954-.561c0.523-.313,1.091-0.648,1.265-0.745s0.523-.308.784-0.474,1.137-.681,1.939-1.154c1.9-1.122,2.187-1.292,2.49-1.467,0.138-.078.665-0.391,1.169-0.69s1.032-.612,1.169-0.69c0.3-.17.509-0.3,1.857-1.094,0.555-.331,1.133-0.667,1.284-0.754a0.834,0.834,0,0,0,.573-0.676c0-.391-0.037-0.428-0.917-0.938-0.266-.152-1.068-0.616-1.788-1.035s-2.247-1.3-3.393-1.964-2.416-1.4-2.82-1.633C25.05,8.813,24.8,8.684,24.1,8.551c-0.2-.037-0.9-0.057-0.9-0.057Z"/>
    <path id="Layer-2" data-name="Layer" class="cls-5" d="M8.27,18.5a0.808,0.808,0,0,0-.362.331l-0.1.161V32.448l0.11,0.482a4.481,4.481,0,0,0,1.036,2.052,4.831,4.831,0,0,0,1.1.9C10.237,35.983,13.9,38.1,15.1,38.8c0.238,0.142.582,0.335,0.756,0.436s0.569,0.326.871,0.505c1.188,0.693,1.426.831,2.866,1.662a9.989,9.989,0,0,0,1.678.886,0.682,0.682,0,0,0,.642-0.312l0.11-.165-0.009-7.668C22,26.57,22,26.478,21.91,26.327a1.189,1.189,0,0,0-.367-0.317c-0.348-.211-2.5-1.474-2.98-1.759-0.2-.119-0.55-0.326-0.779-0.459s-0.66-.386-0.963-0.565-0.715-.418-0.917-0.542-1.375-.808-2.613-1.534c-3.292-1.933-3.3-1.938-3.92-2.31a1.849,1.849,0,0,0-.8-0.358A0.871,0.871,0,0,0,8.27,18.5Z"/>
    <path id="Layer-3" data-name="Layer" class="cls-5" d="M37.613,18.5c-0.17.092-3.622,2.12-5.548,3.263-0.619.363-1.362,0.8-1.651,0.973-1.834,1.074-5.076,2.983-5.364,3.157a1.144,1.144,0,0,0-.637.592c-0.028.092-.032,3.194-0.018,7.692,0.027,8.339,0,7.715.325,7.962a0.545,0.545,0,0,0,.394.124c0.257,0,.092.087,2.435-1.271,0.633-.367,1.343-0.776,1.582-0.918,1.045-.606,2.054-1.189,2.843-1.643,0.468-.271,1.169-0.675,1.559-0.9s1.114-.642,1.6-0.927a13.637,13.637,0,0,0,1.88-1.166,4.659,4.659,0,0,0,1.6-2.969c0.037-.317.046-2.244,0.037-6.976-0.014-6.443-.014-6.54-0.105-6.7a0.671,0.671,0,0,0-.559-0.358A0.64,0.64,0,0,0,37.613,18.5Z"/>
    <path id="Layer_copy_4" data-name="Layer copy 4" class="cls-6" d="M23.214,19.942l-3.709,2.095a1.225,1.225,0,0,0,.347.248c0.353,0.207,2.513,1.482,2.889,1.705,0.181,0.108.357,0.212,0.391,0.231L23.2,24.254l0.262-.154c0.143-.086.3-0.178,0.347-0.2s0.143-.085.215-0.13,0.312-.187.532-0.316c0.521-.308.6-0.354,0.683-0.4l0.321-.189,0.321-.189c0.082-.047.139-0.082,0.509-0.3,0.152-.091.31-0.183,0.352-0.207a0.391,0.391,0,0,0,.157-0.185Z"/>
  </g>
  <g>
    <path class="cls-3" d="M48.008,6.482l3.108,3.168a0.878,0.878,0,0,1-.01,1.238l-3.158,3.118A0.871,0.871,0,0,1,46.713,14l-3.108-3.168a0.878,0.878,0,0,1,.01-1.238l3.157-3.118A0.871,0.871,0,0,1,48.008,6.482Z"/>
    <path id="Rectangle_1_copy_2" data-name="Rectangle 1 copy 2" class="cls-4" d="M48.137,6.615l2.935,2.9a1.064,1.064,0,0,1-.012,1.5l-2.981,2.858a1.855,1.855,0,0,1-.717.3l0-7.971A1.308,1.308,0,0,1,48.137,6.615Z"/>
    <path id="Rectangle_1_copy" data-name="Rectangle 1 copy" class="cls-6" d="M49.387,12.611l-1.308,1.266a1.055,1.055,0,0,1-1.5-.012l-1.262-1.312,2.041-1.48Z"/>
  </g>
</svg>
